HIERARCHY
ROOT Hips
{
 OFFSET 0.000000 0.000000 0.000000
 CHANNELS 6 Xposition Yposition Zposition Yrotation Xrotation Zrotation
 JOINT Chest
 {
  OFFSET 0.000000 9.303000 0.001900
  CHANNELS 3 Yrotation Xrotation Zrotation
  JOINT Chest2
  {
   OFFSET 0.000000 9.301100 -0.003900
   CHANNELS 3 Yrotation Xrotation Zrotation
   JOINT Chest3
   {
    OFFSET 0.000000 9.262800 0.000000
    CHANNELS 3 Yrotation Xrotation Zrotation
    JOINT Chest4
    {
     OFFSET 0.000000 9.253300 0.000000
     CHANNELS 3 Yrotation Xrotation Zrotation
     JOINT Neck
     {
      OFFSET 0.000000 14.010300 0.000000
      CHANNELS 3 Yrotation Xrotation Zrotation
      JOINT Head
      {
       OFFSET 0.000000 8.657600 -0.008300
       CHANNELS 3 Yrotation Xrotation Zrotation
       End Site
       {
        OFFSET 0.000000 16.540200 -0.004400
       }
      }
     }
     JOINT RightCollar
     {
      OFFSET -2.834100 9.267700 0.000000
      CHANNELS 3 Yrotation Xrotation Zrotation
      JOINT RightShoulder
      {
       OFFSET -13.135200 0.000000 0.000000
       CHANNELS 3 Yrotation Xrotation Zrotation
       JOINT RightElbow
       {
        OFFSET 0.000000 -28.893500 0.000000
        CHANNELS 3 Yrotation Xrotation Zrotation
        JOINT RightWrist
        {
         OFFSET 0.000000 -23.344000 0.000000
         CHANNELS 3 Yrotation Xrotation Zrotation
         End Site
         {
          OFFSET 0.000000 -17.223000 0.000000
         }
        }
       }
      }
     }
     JOINT LeftCollar
     {
      OFFSET 2.834100 9.267700 0.000000
      CHANNELS 3 Yrotation Xrotation Zrotation
      JOINT LeftShoulder
      {
       OFFSET 13.135200 0.000000 0.000000
       CHANNELS 3 Yrotation Xrotation Zrotation
       JOINT LeftElbow
       {
        OFFSET 0.000000 -28.893500 0.000000
        CHANNELS 3 Yrotation Xrotation Zrotation
        JOINT LeftWrist
        {
         OFFSET 0.000000 -23.344000 0.000000
         CHANNELS 3 Yrotation Xrotation Zrotation
         End Site
         {
          OFFSET 0.000000 -17.223000 0.000000
         }
        }
       }
      }
     }
    }
   }
  }
 }
 JOINT RightHip
 {
  OFFSET -7.547200 -0.009500 -0.001000
  CHANNELS 3 Yrotation Xrotation Zrotation
  JOINT RightKnee
  {
   OFFSET 0.000000 -39.762800 0.000900
   CHANNELS 3 Yrotation Xrotation Zrotation
   JOINT RightAnkle
   {
    OFFSET 0.000000 -38.588200 0.001600
    CHANNELS 3 Yrotation Xrotation Zrotation
    JOINT RightToe
    {
     OFFSET 0.000000 -4.693300 10.419700
     CHANNELS 3 Yrotation Xrotation Zrotation
     End Site
     {
      OFFSET 0.000000 -1.379900 5.669300
     }
    }
   }
  }
 }
 JOINT LeftHip
 {
  OFFSET 7.547200 -0.009500 -0.001000
  CHANNELS 3 Yrotation Xrotation Zrotation
  JOINT LeftKnee
  {
   OFFSET 0.000000 -39.762800 0.000900
   CHANNELS 3 Yrotation Xrotation Zrotation
   JOINT LeftAnkle
   {
    OFFSET 0.000000 -38.588200 0.001600
    CHANNELS 3 Yrotation Xrotation Zrotation
    JOINT LeftToe
    {
     OFFSET 0.000000 -4.693300 10.419700
     CHANNELS 3 Yrotation Xrotation Zrotation
     End Site
     {
      OFFSET 0.000000 -1.379900 5.669300
     }
    }
   }
  }
 }
}
MOTION
Frames: 7
Frame Time: 0.008333
0.000000 82.880600 0.000000 0.000000 -5.767877 0.000000 0.000000 11.653817 0.000000 0.000000 -5.885947 0.000000 0.000000 -0.000000 0.000000 0.000000 -0.000000 0.000000 0.000000 12.528835 0.000000 0.000000 0.711642 0.000000 0.000000 -0.000000 0.000000 0.000000 0.000000 -90.000000 0.000000 -2.309062 0.000000 0.000000 2.309062 0.000000 0.000000 -0.000000 0.000000 0.000000 -0.000000 90.000000 0.000000 -2.309062 0.000000 0.000000 2.309062 0.000000 0.000000 8.520406 0.000000 0.000000 1.905762 0.000000 -0.000000 -4.658285 0.000000 0.000000 -0.000000 0.000000 0.000000 8.520406 0.000000 0.000000 1.905762 0.000000 -0.000000 -4.658285 0.000000 0.000000 -0.000000 0.000000
2.267617 45.917037 8.880880 170.728857 -8.463677 -0.154102 0.427645 7.156749 0.292384 0.012445 0.305089 0.023163 0.030751 0.537423 0.040392 0.417598 6.783716 0.533250 -1.445413 21.816256 0.117970 -1.579011 -2.453341 0.461702 3.795762 5.639942 -5.123667 -8.489378 -7.567443 -0.615469 -95.559365 -84.771819 103.677642 -11.337851 -5.068614 -11.722217 -10.108058 3.877415 -4.161805 20.635788 -10.228552 7.876224 60.698905 -69.261809 -74.767181 6.318474 1.267209 6.617402 -27.169400 -78.994271 17.190929 -143.563904 82.487530 -145.358267 -8.568249 -12.217711 -0.356550 0.050678 -0.202738 0.011660 -5.232270 -78.564938 22.482069 94.799187 77.651237 92.032116 -11.907559 -8.361081 1.958787 0.062226 0.320518 0.014154
2.267663 45.917441 8.880009 170.722498 -8.463150 -0.153424 0.427567 7.155182 0.293001 0.016964 0.305403 0.021663 0.030440 0.535549 0.039547 0.419480 6.780895 0.533283 -1.443066 21.825099 0.116079 -1.576612 -2.444432 0.460081 3.796198 5.648619 -5.120383 -8.485859 -7.565550 -0.616362 -95.161521 -84.767481 103.284075 -11.329372 -5.094474 -11.729639 -10.115038 3.885887 -4.165068 20.627207 -10.225697 7.870953 60.678837 -69.263165 -74.738906 6.323381 1.275762 6.628085 -27.164319 -78.993394 17.188911 -143.544316 82.485729 -145.339681 -8.558415 -12.222717 -0.357907 0.058035 -0.200752 0.015771 -5.227347 -78.566159 22.480321 94.814991 77.646973 92.047816 -11.903592 -8.364622 1.962002 0.057836 0.320119 0.013460
2.266930 45.917995 8.878250 170.715824 -8.465283 -0.146385 0.432399 7.155885 0.284245 0.017539 0.306020 0.022943 0.030040 0.531488 0.039796 0.423328 6.776297 0.533049 -1.442218 21.836889 0.114415 -1.575342 -2.433508 0.458460 3.793922 5.660284 -5.115925 -8.482933 -7.566163 -0.620252 -94.902716 -84.764979 103.027606 -11.324848 -5.114784 -11.731983 -10.128434 3.907480 -4.185425 20.629787 -10.241713 7.882805 60.646367 -69.257571 -74.709448 6.328943 1.284507 6.630880 -27.124100 -78.991003 17.157493 -143.482794 82.483995 -145.269363 -8.624461 -12.229709 -0.353206 0.048796 -0.196478 0.015917 -5.189705 -78.564697 22.448299 94.845088 77.649950 92.075103 -11.896730 -8.369086 1.968307 0.048876 0.318580 0.012341
2.266562 45.918625 8.876355 170.715910 -8.465990 -0.141139 0.430718 7.153137 0.278175 0.017655 0.305669 0.022855 0.028834 0.528486 0.040727 0.428086 6.770584 0.532865 -1.441565 21.851289 0.112239 -1.573669 -2.419032 0.454685 3.790786 5.676193 -5.110532 -8.480708 -7.570038 -0.625205 -94.707902 -84.768814 102.836299 -11.328320 -5.118590 -11.745144 -10.134658 3.922572 -4.199110 20.613027 -10.241763 7.888376 60.580028 -69.247704 -74.637390 6.327409 1.276718 6.623507 -27.098004 -78.989367 17.135962 -143.427391 82.485079 -145.205050 -8.706424 -12.237808 -0.344206 0.029580 -0.191928 0.012268 -5.177703 -78.566983 22.433222 94.865408 77.650224 92.096761 -11.895959 -8.365110 1.966516 0.051735 0.312100 0.014188
2.269159 45.919326 8.875379 170.700036 -8.460697 -0.150589 0.445642 7.141309 0.289976 0.014249 0.300662 0.023850 0.031817 0.533573 0.041070 0.431781 6.767258 0.532783 -1.441781 21.861935 0.109792 -1.566234 -2.379710 0.444134 3.789115 5.690366 -5.106285 -8.479568 -7.575621 -0.630168 -94.488150 -84.776274 102.624485 -11.333144 -5.117039 -11.752265 -10.137251 3.932538 -4.207819 20.597265 -10.239559 7.886315 60.503039 -69.235948 -74.559308 6.318742 1.262865 6.616690 -27.158385 -78.987072 17.202918 -143.470050 82.489884 -145.249934 -8.636934 -12.234376 -0.361727 0.041884 -0.196466 0.017612 -5.232004 -78.572921 22.502977 94.901814 77.654987 92.139408 -11.892078 -8.373521 1.959969 0.054383 0.312621 0.016712
2.272452 45.920282 8.874442 170.684008 -8.451628 -0.161820 0.458013 7.126812 0.304231 0.018105 0.304527 0.022932 0.031147 0.530506 0.043390 0.433622 6.768768 0.531031 -1.440241 21.866596 0.108561 -1.564667 -2.357825 0.438812 3.788952 5.695438 -5.104974 -8.472395 -7.582429 -0.636688 -94.264128 -84.780657 102.400667 -11.328258 -5.109418 -11.745682 -10.136715 3.935551 -4.213945 20.577851 -10.245550 7.887794 60.263830 -69.188485 -74.326467 6.294174 1.177491 6.610987 -27.223605 -78.988280 17.274338 -143.528135 82.494035 -145.309134 -8.538530 -12.232503 -0.386619 0.065581 -0.200902 0.027130 -5.305451 -78.579434 22.591653 94.933213 77.663311 92.170710 -11.879757 -8.387739 1.961869 0.050333 0.317963 0.013409
